<?xml version="1.0" encoding="UTF-8" ?>
<!DOCTYPE svg PUBLIC "-//W3C//DTD SVG 1.1//EN" "http://www.w3.org/Graphics/SVG/1.1/DTD/svg11.dtd">
<svg width="1008pt" height="783pt" viewBox="0 0 1008 783" version="1.1" xmlns="http://www.w3.org/2000/svg">
<path fill="#ffffff" opacity="1.00" d=" M 0.00 0.00 L 1008.00 0.00 L 1008.00 783.00 L 0.00 783.00 L 0.00 0.00 M 680.93 2.39 C 608.82 3.63 536.62 -0.21 464.54 3.82 C 460.70 3.95 456.87 4.56 453.03 4.34 C 447.70 3.45 442.32 4.28 436.97 4.41 C 347.77 8.75 258.12 18.17 172.11 43.23 C 168.81 44.15 166.63 47.02 163.87 48.86 C 144.06 63.32 120.71 72.19 101.46 87.49 C 88.71 97.42 78.02 110.58 72.92 126.06 C 74.67 141.22 72.77 157.04 65.77 170.74 C 58.03 186.79 43.34 199.06 26.37 204.37 C 24.15 218.08 9.65 223.96 3.64 235.50 C 1.97 239.18 4.24 243.11 3.78 246.94 C 3.18 270.08 -1.74 293.27 1.79 316.40 C 3.01 324.92 6.33 332.93 10.53 340.38 C 10.81 350.48 14.79 360.24 20.66 368.38 C 22.14 370.54 24.31 372.19 25.48 374.57 C 41.97 408.83 47.59 447.27 47.75 485.00 C 48.37 551.24 34.27 616.61 34.27 682.82 C 49.13 715.17 75.86 741.57 107.60 757.47 C 145.25 776.58 188.17 782.69 230.00 782.04 C 267.00 781.45 303.84 775.55 339.45 765.61 C 345.02 764.70 350.74 765.51 356.31 764.55 C 370.15 761.81 384.16 760.04 398.18 758.45 C 401.15 758.30 403.36 756.09 405.99 754.99 C 415.70 750.63 426.52 749.89 436.50 746.33 C 440.80 744.78 445.06 742.59 448.00 739.00 C 448.80 738.20 449.42 736.98 450.67 736.86 C 501.40 726.84 549.99 708.49 597.59 688.65 C 636.47 672.42 674.80 654.90 713.77 638.87 C 744.46 627.03 773.15 610.28 799.19 590.23 C 847.27 553.09 887.07 504.86 912.74 449.69 C 913.71 447.05 916.66 446.32 918.77 444.86 C 936.36 434.18 949.06 417.57 961.78 401.79 C 979.18 379.65 994.43 355.20 1002.11 327.89 C 1002.91 324.38 1005.74 321.57 1005.70 317.83 C 1005.83 309.53 1005.70 301.22 1005.76 292.92 C 1005.84 289.55 1005.15 285.85 1002.42 283.58 C 998.90 280.87 997.39 276.58 995.13 272.92 C 980.91 248.21 963.43 224.80 940.48 207.55 C 935.94 201.49 932.68 194.17 926.46 189.51 C 922.76 186.64 918.02 185.63 913.44 185.42 C 908.20 179.65 903.17 173.67 898.80 167.20 C 878.72 137.75 868.25 102.80 846.78 74.19 C 834.87 58.62 821.13 44.24 805.01 32.99 C 791.28 23.42 775.75 16.62 759.62 12.27 C 736.89 6.04 713.36 3.53 690.00 0.91 C 686.85 0.35 683.81 1.22 680.93 2.39 Z" />
<path fill="#000000" opacity="1.00" d=" M 680.93 2.39 C 683.81 1.22 686.85 0.35 690.00 0.91 C 713.36 3.53 736.89 6.04 759.62 12.27 C 775.75 16.62 791.28 23.42 805.01 32.99 C 821.13 44.24 834.87 58.62 846.78 74.19 C 868.25 102.80 878.72 137.75 898.80 167.20 C 903.17 173.67 908.20 179.65 913.44 185.42 C 918.02 185.63 922.76 186.64 926.46 189.51 C 932.68 194.17 935.94 201.49 940.48 207.55 C 963.43 224.80 980.91 248.21 995.13 272.92 C 997.39 276.58 998.90 280.87 1002.42 283.58 C 1005.15 285.85 1005.84 289.55 1005.76 292.92 C 1005.70 301.22 1005.83 309.53 1005.70 317.83 C 1005.74 321.57 1002.91 324.38 1002.11 327.89 C 994.43 355.20 979.18 379.65 961.78 401.79 C 949.06 417.57 936.36 434.18 918.77 444.86 C 916.66 446.32 913.71 447.05 912.74 449.69 C 887.07 504.86 847.27 553.09 799.19 590.23 C 773.15 610.28 744.46 627.03 713.77 638.87 C 674.80 654.90 636.47 672.42 597.59 688.65 C 549.99 708.49 501.40 726.84 450.67 736.86 C 449.42 736.98 448.80 738.20 448.00 739.00 C 445.06 742.59 440.80 744.78 436.50 746.33 C 426.52 749.89 415.70 750.63 405.99 754.99 C 403.36 756.09 401.15 758.30 398.18 758.45 C 384.16 760.04 370.15 761.81 356.31 764.55 C 350.74 765.51 345.02 764.70 339.45 765.61 C 303.84 775.55 267.00 781.45 230.00 782.04 C 188.17 782.69 145.25 776.58 107.60 757.47 C 75.86 741.57 49.13 715.17 34.27 682.82 C 34.27 616.61 48.37 551.24 47.75 485.00 C 47.59 447.27 41.97 408.83 25.48 374.57 C 24.31 372.19 22.14 370.54 20.66 368.38 C 14.79 360.24 10.81 350.48 10.53 340.38 C 6.33 332.93 3.01 324.92 1.79 316.40 C -1.74 293.27 3.18 270.08 3.78 246.94 C 4.24 243.11 1.97 239.18 3.64 235.50 C 9.65 223.96 24.15 218.08 26.37 204.37 C 43.34 199.06 58.03 186.79 65.77 170.74 C 72.77 157.04 74.67 141.22 72.92 126.06 C 78.02 110.58 88.71 97.42 101.46 87.49 C 120.71 72.19 144.06 63.32 163.87 48.86 C 166.63 47.02 168.81 44.15 172.11 43.23 C 258.12 18.17 347.77 8.75 436.97 4.41 C 442.32 4.28 447.70 3.45 453.03 4.34 C 456.87 4.56 460.70 3.95 464.54 3.82 C 536.62 -0.21 608.82 3.63 680.93 2.39 M 456.95 20.07 C 453.92 20.21 451.14 21.65 448.10 21.67 C 358.21 25.67 267.82 34.43 181.01 59.17 C 177.91 59.93 175.73 62.43 173.15 64.13 C 151.87 79.72 126.14 88.60 106.55 106.58 C 100.05 112.63 94.61 119.96 91.18 128.18 C 91.09 135.36 91.66 142.61 90.51 149.76 C 87.23 177.19 70.44 203.10 45.54 215.60 C 43.54 216.83 40.70 217.27 39.75 219.70 C 35.50 228.37 27.46 234.11 21.23 241.21 C 20.13 242.17 20.25 243.65 20.24 244.97 C 20.47 266.33 15.43 287.53 17.45 308.90 C 18.22 316.24 19.96 323.71 23.91 330.04 C 25.29 330.74 26.93 330.59 28.43 330.86 C 30.47 313.73 23.01 297.13 24.74 280.00 C 25.47 271.80 28.99 263.71 34.98 258.00 C 37.73 255.33 42.80 257.35 43.18 261.06 C 43.73 263.86 41.22 265.78 39.77 267.81 C 34.62 274.27 33.97 283.06 34.78 290.98 C 36.22 305.03 40.45 319.06 38.14 333.27 C 37.87 335.72 36.59 337.85 35.62 340.07 C 36.05 344.47 38.17 348.44 40.18 352.29 C 41.45 350.75 42.56 349.09 43.64 347.42 C 46.00 347.01 49.03 347.10 49.54 350.06 C 49.72 353.71 46.60 356.32 44.58 359.01 C 45.09 362.43 43.77 366.17 45.69 369.29 C 53.48 386.15 58.88 404.05 62.48 422.24 C 68.82 454.75 69.17 488.09 67.32 521.05 C 64.54 571.82 56.21 622.17 54.73 673.03 C 54.82 675.15 54.34 677.47 55.47 679.41 C 59.54 687.11 64.35 694.42 69.79 701.22 C 89.50 726.20 118.22 742.82 148.50 751.61 C 175.24 759.47 203.27 762.06 231.05 761.53 C 265.25 760.84 299.28 755.36 332.23 746.30 C 334.86 745.46 337.68 746.08 340.31 745.30 C 371.22 735.29 403.82 732.43 435.21 724.36 C 437.57 723.60 438.85 720.98 441.23 720.27 C 492.76 710.93 541.95 692.18 590.15 672.17 C 630.69 655.24 670.66 636.98 711.34 620.37 C 740.22 608.91 766.98 592.54 791.38 573.39 C 836.58 537.58 874.03 491.54 897.85 438.89 C 898.86 436.07 901.65 434.74 903.88 433.05 C 906.94 424.06 909.32 414.20 916.33 407.32 C 923.86 399.64 934.60 396.83 944.53 393.69 C 961.49 373.36 976.09 350.41 983.92 324.93 C 984.50 323.02 985.08 321.06 985.02 319.05 C 984.98 310.01 985.02 300.97 985.00 291.94 C 985.14 289.54 983.45 287.64 982.45 285.61 C 968.71 261.42 952.32 237.86 929.69 221.18 C 926.40 221.84 923.15 225.12 924.24 228.64 C 926.45 234.09 931.86 237.13 935.54 241.47 C 937.84 244.17 940.38 247.95 938.52 251.56 C 937.42 251.60 936.33 251.66 935.26 251.72 C 933.92 249.13 932.94 246.28 930.87 244.15 C 927.64 240.71 923.66 237.95 921.01 233.99 C 919.36 231.57 918.82 228.65 918.17 225.85 C 912.27 222.95 905.74 221.78 899.75 219.14 C 897.40 218.08 894.66 216.63 894.25 213.80 C 893.83 210.84 896.06 208.49 897.82 206.41 C 881.88 206.68 865.93 206.52 850.00 206.50 C 846.55 206.65 845.87 200.85 849.38 200.43 C 864.24 200.16 879.11 200.44 893.98 200.31 C 896.53 200.63 898.65 196.46 896.31 194.85 C 885.76 183.22 877.28 169.89 869.89 156.09 C 860.03 137.78 852.00 118.51 841.38 100.60 C 831.91 84.39 819.51 69.98 805.48 57.54 C 791.58 45.16 774.72 36.32 756.84 31.25 C 733.88 24.68 710.01 22.34 686.37 19.60 C 684.22 19.28 682.21 18.24 680.02 18.24 C 665.02 18.02 650.02 18.95 635.02 18.27 C 575.67 18.18 516.23 16.15 456.95 20.07 Z" />
<path fill="#ffffff" opacity="1.00" d=" M 456.95 20.07 C 516.23 16.15 575.67 18.18 635.02 18.27 C 650.02 18.95 665.02 18.02 680.02 18.24 C 682.21 18.24 684.22 19.28 686.37 19.60 C 710.01 22.34 733.88 24.68 756.84 31.25 C 774.72 36.32 791.58 45.16 805.48 57.54 C 819.51 69.98 831.91 84.39 841.38 100.60 C 852.00 118.51 860.03 137.78 869.89 156.09 C 877.28 169.89 885.76 183.22 896.31 194.85 C 898.65 196.46 896.53 200.63 893.98 200.31 C 879.11 200.44 864.24 200.16 849.38 200.43 C 845.87 200.85 846.55 206.65 850.00 206.50 C 865.93 206.52 881.88 206.68 897.82 206.41 C 896.06 208.49 893.83 210.84 894.25 213.80 C 894.66 216.63 897.40 218.08 899.75 219.14 C 905.74 221.78 912.27 222.95 918.17 225.85 C 918.82 228.65 919.36 231.57 921.01 233.99 C 923.66 237.95 927.64 240.71 930.87 244.15 C 932.94 246.28 933.92 249.13 935.26 251.72 C 936.33 251.66 937.42 251.60 938.52 251.56 C 940.38 247.95 937.84 244.17 935.54 241.47 C 931.86 237.13 926.45 234.09 924.24 228.64 C 923.15 225.12 926.40 221.84 929.69 221.18 C 952.32 237.86 968.71 261.42 982.45 285.61 C 983.45 287.64 985.14 289.54 985.00 291.94 C 985.02 300.97 984.98 310.01 985.02 319.05 C 985.08 321.06 984.50 323.02 983.92 324.93 C 976.09 350.41 961.49 373.36 944.53 393.69 C 934.60 396.83 923.86 399.64 916.33 407.32 C 909.32 414.20 906.94 424.06 903.88 433.05 C 901.65 434.74 898.86 436.07 897.85 438.89 C 874.03 491.54 836.58 537.58 791.38 573.39 C 766.98 592.54 740.22 608.91 711.34 620.37 C 670.66 636.98 630.69 655.24 590.15 672.17 C 541.95 692.18 492.76 710.93 441.23 720.27 C 438.85 720.98 437.57 723.60 435.21 724.36 C 403.82 732.43 371.22 735.29 340.31 745.30 C 337.68 746.08 334.86 745.46 332.23 746.30 C 299.28 755.36 265.25 760.84 231.05 761.53 C 203.27 762.06 175.24 759.47 148.50 751.61 C 118.22 742.82 89.50 726.20 69.79 701.22 C 64.35 694.42 59.54 687.11 55.47 679.41 C 54.34 677.47 54.82 675.15 54.73 673.03 C 56.21 622.17 64.54 571.82 67.32 521.05 C 69.17 488.09 68.82 454.75 62.48 422.24 C 58.88 404.05 53.48 386.15 45.69 369.29 C 43.77 366.17 45.09 362.43 44.58 359.01 C 46.60 356.32 49.72 353.71 49.54 350.06 C 49.03 347.10 46.00 347.01 43.64 347.42 C 42.56 349.09 41.45 350.75 40.18 352.29 C 38.17 348.44 36.05 344.47 35.62 340.07 C 36.59 337.85 37.87 335.72 38.14 333.27 C 40.45 319.06 36.22 305.03 34.78 290.98 C 33.97 283.06 34.62 274.27 39.77 267.81 C 41.22 265.78 43.73 263.86 43.18 261.06 C 42.80 257.35 37.73 255.33 34.98 258.00 C 28.99 263.71 25.47 271.80 24.74 280.00 C 23.01 297.13 30.47 313.73 28.43 330.86 C 26.93 330.59 25.29 330.74 23.91 330.04 C 19.96 323.71 18.22 316.24 17.45 308.90 C 15.43 287.53 20.47 266.33 20.24 244.97 C 20.25 243.65 20.13 242.17 21.23 241.21 C 27.46 234.11 35.50 228.37 39.75 219.70 C 40.70 217.27 43.54 216.83 45.54 215.60 C 70.44 203.10 87.23 177.19 90.51 149.76 C 91.66 142.61 91.09 135.36 91.18 128.18 C 94.61 119.96 100.05 112.63 106.55 106.58 C 126.14 88.60 151.87 79.72 173.15 64.13 C 175.73 62.43 177.91 59.93 181.01 59.17 C 267.82 34.43 358.21 25.67 448.10 21.67 C 451.14 21.65 453.92 20.21 456.95 20.07 M 514.49 40.31 C 511.89 42.10 513.13 46.23 516.03 46.91 C 534.95 54.69 555.78 55.75 575.99 55.47 C 595.40 55.64 614.93 54.05 634.24 56.77 C 635.59 56.77 637.21 57.41 638.40 56.49 C 641.13 54.90 640.26 49.91 636.89 49.84 C 616.74 46.68 596.29 48.43 576.00 48.21 C 556.98 48.48 537.39 47.60 519.53 40.42 C 517.98 39.88 515.87 39.03 514.49 40.31 M 333.43 49.51 C 309.79 55.60 287.53 66.01 263.86 71.98 C 261.09 72.35 259.39 75.79 260.78 78.21 C 261.70 80.33 264.39 81.13 266.49 80.38 C 290.39 74.37 312.85 63.80 336.73 57.74 C 340.25 57.27 341.70 52.30 338.94 50.06 C 337.41 48.61 335.25 48.96 333.43 49.51 M 472.41 56.50 C 469.67 56.93 467.95 60.18 469.13 62.70 C 470.21 65.43 473.39 66.15 475.79 67.31 C 488.78 72.83 503.13 72.92 517.00 73.20 C 523.00 73.14 529.00 73.26 534.99 73.16 C 538.59 73.25 540.51 68.43 538.26 65.78 C 536.89 63.77 534.19 64.01 532.08 63.95 C 521.54 64.00 511.00 64.07 500.49 63.34 C 492.80 62.65 484.97 61.46 477.96 58.03 C 476.22 57.24 474.42 56.07 472.41 56.50 M 385.85 65.85 C 383.53 69.24 380.63 72.40 376.66 73.82 C 363.93 78.93 349.22 76.32 336.94 82.93 C 333.17 84.65 330.65 88.10 327.10 90.12 C 323.08 92.40 321.11 98.03 315.97 98.06 C 285.77 102.37 254.89 101.77 225.12 109.03 C 222.78 109.68 220.31 110.04 218.14 111.16 C 211.23 121.11 210.00 134.71 200.15 142.62 C 198.86 142.18 197.58 141.73 196.30 141.27 C 195.83 137.83 198.25 135.16 198.78 131.98 C 198.91 127.06 191.72 125.21 189.13 129.15 C 184.94 133.53 185.81 140.15 186.54 145.64 C 186.61 148.02 188.85 149.26 190.63 150.36 C 194.38 152.37 198.69 153.02 202.89 153.25 C 215.66 146.79 219.43 131.97 225.07 120.01 C 255.12 111.94 286.57 113.07 317.16 108.44 C 320.82 107.50 325.00 108.61 327.42 111.59 C 332.49 116.97 340.22 120.00 347.58 118.60 C 350.40 117.77 351.57 113.80 349.58 111.58 C 348.35 109.73 345.89 110.38 344.03 110.11 C 341.05 110.11 338.17 109.04 335.80 107.27 C 335.02 106.42 332.42 105.44 333.92 104.06 C 337.11 103.16 340.64 105.79 343.75 104.04 C 347.24 102.30 347.58 96.70 344.28 94.61 C 342.59 93.70 340.63 93.54 338.81 93.03 C 343.38 88.78 350.07 88.28 355.94 87.23 C 367.29 85.70 380.12 85.28 388.90 76.89 C 391.30 74.24 394.66 71.16 393.92 67.22 C 393.05 63.77 387.76 62.83 385.85 65.85 M 534.47 90.79 C 522.90 91.93 511.25 93.19 499.99 96.10 C 488.97 107.17 479.34 120.64 476.32 136.25 C 475.61 139.08 477.92 142.49 481.04 141.93 C 484.03 142.53 485.78 139.63 486.14 137.07 C 488.79 125.15 496.01 114.90 504.07 105.99 C 505.45 104.26 507.88 104.43 509.85 103.90 C 555.75 95.76 603.02 99.39 648.46 108.63 C 657.21 117.16 665.35 126.43 675.19 133.80 C 687.31 143.31 701.72 150.15 717.05 152.31 C 720.92 153.18 724.18 148.42 722.14 145.08 C 720.88 142.49 717.62 142.65 715.23 142.05 C 698.15 138.95 683.22 128.97 670.89 117.12 C 664.75 111.65 659.52 105.23 653.51 99.66 C 614.49 91.43 574.30 87.58 534.47 90.79 M 333.39 137.28 C 330.20 138.55 329.22 143.07 331.36 145.68 C 335.07 150.36 338.43 155.77 338.38 161.96 C 338.42 164.55 337.74 167.15 338.16 169.74 C 339.24 173.08 343.62 174.79 346.60 172.77 C 349.37 171.32 349.53 167.84 349.81 165.10 C 350.76 155.41 346.78 145.78 340.41 138.61 C 338.67 136.73 335.69 135.94 333.39 137.28 M 527.94 165.85 C 521.85 170.20 514.68 172.97 509.34 178.36 C 506.57 181.49 501.97 180.82 498.41 182.47 C 482.98 187.76 473.39 201.80 460.59 211.05 C 463.37 217.71 465.29 224.76 468.89 231.06 C 471.91 236.33 477.08 240.61 483.24 241.41 C 487.92 241.85 492.34 243.55 496.98 244.26 C 511.60 246.32 526.24 242.33 539.56 236.52 C 554.60 230.36 568.79 221.50 584.90 218.35 C 594.70 222.62 605.60 221.82 615.99 221.11 C 626.32 222.08 636.69 221.13 647.03 221.45 C 649.17 221.39 651.40 221.29 653.37 220.33 C 654.90 218.83 654.31 216.61 654.43 214.72 C 664.97 220.19 674.83 227.33 686.44 230.42 C 696.52 233.17 708.16 232.04 716.61 225.58 C 720.97 211.60 714.20 196.62 703.59 187.41 C 696.71 181.85 689.89 176.09 681.91 172.14 C 654.58 157.94 623.66 151.30 592.99 150.59 C 570.60 150.54 547.29 153.89 527.94 165.85 M 200.61 187.60 C 193.12 193.28 186.97 201.42 185.59 210.91 C 190.69 216.35 197.38 219.96 204.12 222.94 C 213.26 226.70 223.67 229.15 233.37 226.12 C 236.51 225.24 239.07 223.15 242.03 221.89 C 245.31 221.61 248.63 221.61 251.92 221.92 C 255.66 223.91 259.04 226.62 263.15 227.91 C 283.27 235.10 305.34 232.79 325.58 239.49 C 330.27 241.00 334.60 243.46 338.42 246.58 C 339.27 259.66 340.13 273.81 333.75 285.75 C 329.24 292.03 321.80 295.12 316.02 300.02 C 312.68 303.19 307.98 303.92 304.00 305.95 C 278.78 317.30 261.11 340.84 234.93 350.43 C 230.69 348.74 226.35 350.62 222.14 351.44 C 200.70 356.51 181.74 368.92 165.79 383.78 C 150.62 397.75 137.60 413.81 124.48 429.64 C 122.27 431.71 123.94 436.19 127.11 435.79 C 129.88 436.19 131.11 433.35 132.67 431.64 C 146.52 414.95 160.38 398.05 177.00 384.01 C 192.37 370.87 210.74 360.49 230.92 357.34 C 231.52 357.83 232.72 358.81 233.32 359.30 C 195.50 403.24 157.39 446.98 121.64 492.65 C 119.57 495.51 116.49 498.17 116.47 501.99 C 115.89 506.92 120.03 511.86 125.05 511.84 C 128.76 512.34 132.27 510.28 134.22 507.21 C 169.11 462.37 206.36 419.45 243.45 376.44 C 244.74 375.14 245.90 373.10 248.04 373.54 C 264.53 372.16 276.20 358.36 291.94 354.68 C 294.32 354.03 296.90 353.71 298.90 352.13 C 311.61 366.66 323.32 383.36 341.24 391.87 C 351.65 396.81 363.83 397.93 374.96 394.96 C 381.29 392.87 382.80 383.56 377.58 379.48 C 374.10 376.11 369.03 377.64 364.83 378.27 C 354.09 379.43 344.05 373.63 336.48 366.54 C 327.31 358.09 319.86 348.06 311.51 338.85 C 314.41 336.65 314.91 332.79 316.90 329.92 C 320.26 324.69 324.08 319.74 327.76 314.73 C 332.83 310.73 338.72 307.77 343.23 303.04 C 347.03 303.60 351.82 303.90 354.31 300.32 C 356.74 296.85 359.12 292.57 363.92 292.34 C 364.13 275.48 363.89 258.61 364.05 241.75 C 370.81 241.79 377.73 240.85 383.82 237.77 C 390.95 234.32 396.29 228.01 399.86 221.06 C 396.60 217.01 392.29 213.41 386.97 212.69 C 375.67 211.39 364.76 216.96 353.49 215.56 C 343.76 205.76 333.54 195.88 320.73 190.21 C 311.14 185.76 300.52 184.15 290.03 183.83 C 283.29 183.98 276.60 184.94 269.95 185.84 C 256.64 184.63 243.28 186.08 229.96 185.34 C 225.90 185.47 222.81 182.35 218.88 181.89 C 212.29 180.98 205.82 183.77 200.61 187.60 M 743.44 200.42 C 739.69 201.61 738.57 207.02 741.24 209.80 C 747.64 217.44 759.78 218.53 767.78 212.85 C 770.67 210.30 770.14 204.91 766.58 203.21 C 761.98 200.56 757.04 206.73 752.56 203.47 C 749.94 201.47 746.97 198.97 743.44 200.42 M 134.80 210.85 C 134.73 214.33 134.73 217.81 134.79 221.29 C 138.26 221.33 141.74 221.33 145.21 221.29 C 145.27 217.81 145.27 214.33 145.20 210.85 C 141.73 210.81 138.26 210.81 134.80 210.85 M 735.56 220.84 C 735.46 224.38 735.48 227.94 735.52 231.49 C 739.00 231.53 742.49 231.52 745.98 231.50 C 746.00 227.94 746.03 224.38 745.91 220.83 C 742.46 220.81 739.00 220.80 735.56 220.84 M 71.53 222.41 C 67.80 225.34 64.70 229.00 61.27 232.28 C 59.50 233.76 58.56 236.23 59.59 238.43 C 60.75 241.51 65.35 241.62 67.27 239.25 C 70.78 235.72 74.54 232.40 77.70 228.55 C 80.30 224.87 75.14 219.70 71.53 222.41 M 66.54 253.44 C 65.12 253.99 64.86 255.70 64.77 257.03 C 64.08 270.28 58.83 282.71 56.95 295.77 C 55.71 303.90 55.59 312.78 59.85 320.11 C 64.32 327.76 72.61 332.35 80.97 334.53 C 84.60 335.16 86.99 330.19 84.40 327.62 C 79.50 325.31 73.94 323.98 69.98 320.02 C 64.80 315.27 63.68 307.78 64.33 301.10 C 65.90 286.21 72.23 272.15 72.76 257.10 C 73.26 253.88 69.10 251.38 66.54 253.44 M 166.44 260.36 C 163.21 260.97 162.69 266.01 165.28 267.71 C 167.27 269.09 170.17 269.23 171.45 271.53 C 174.20 275.98 174.59 281.76 178.40 285.58 C 199.53 294.60 223.62 294.78 243.96 305.95 C 245.54 306.95 247.53 306.94 249.28 306.43 C 251.88 304.70 252.03 300.24 249.13 298.75 C 230.11 287.81 207.68 286.43 187.18 279.64 C 185.90 279.06 184.09 278.88 183.53 277.38 C 181.36 272.70 180.33 267.21 176.35 263.61 C 173.64 261.37 170.03 259.62 166.44 260.36 M 542.39 281.15 C 539.13 282.90 540.23 288.53 543.92 288.93 C 569.73 295.53 596.26 300.39 623.00 299.74 C 639.17 299.84 655.47 297.27 670.58 291.44 C 673.19 290.72 674.75 287.29 673.03 285.03 C 671.92 282.62 668.72 283.06 666.67 283.78 C 658.24 286.95 649.43 289.00 640.52 290.21 C 611.27 293.80 581.76 289.14 553.28 282.49 C 549.70 282.06 545.88 279.40 542.39 281.15 M 475.75 302.48 C 474.40 309.04 474.16 317.43 480.22 321.79 C 490.33 328.65 503.61 326.21 514.30 331.66 C 515.24 332.23 516.60 332.84 516.47 334.19 C 516.98 340.37 516.72 346.59 516.71 352.79 C 516.29 357.76 515.99 363.46 512.38 367.26 C 508.18 368.82 503.62 370.29 499.12 369.24 C 496.26 367.53 495.94 363.90 495.17 360.98 C 493.85 354.52 491.96 347.66 486.97 343.01 C 479.12 337.66 469.36 335.72 459.98 336.28 C 451.79 336.32 443.91 338.99 436.58 342.45 C 430.40 342.97 423.49 342.18 418.15 346.08 C 414.44 348.83 414.38 353.90 414.47 358.09 C 418.34 358.67 422.15 359.62 425.72 361.24 C 430.50 363.09 435.71 365.74 440.91 364.10 C 444.36 363.01 444.62 358.35 448.10 357.33 C 456.43 353.95 466.65 352.73 474.78 357.20 C 477.19 361.08 477.18 365.97 478.64 370.24 C 480.62 377.84 486.38 384.65 494.10 386.74 C 502.02 388.99 510.27 387.16 518.00 385.00 C 528.34 394.94 529.01 410.53 528.24 423.95 C 526.60 451.20 518.33 477.55 516.49 504.79 C 508.84 545.67 500.92 587.36 481.57 624.61 C 479.15 630.04 474.75 634.41 473.17 640.24 C 471.38 645.70 470.93 653.09 476.03 656.94 C 481.17 660.55 487.79 659.16 493.56 658.34 C 495.64 658.04 496.88 655.90 497.02 653.96 C 497.92 649.11 495.71 644.18 496.45 639.42 C 519.37 597.93 528.53 550.76 536.80 504.63 C 546.57 477.15 551.20 448.05 552.93 419.02 C 554.23 394.98 553.24 370.65 547.92 347.11 C 544.27 331.60 538.55 316.12 528.25 303.76 C 527.55 302.56 526.20 302.34 524.94 302.43 C 508.55 302.48 492.15 302.39 475.75 302.48 M 941.72 352.68 C 940.52 355.76 939.90 359.15 937.81 361.80 C 934.31 366.30 929.53 369.78 926.81 374.88 C 925.87 376.69 924.38 379.08 926.02 380.96 C 927.33 383.44 931.50 383.01 932.40 380.36 C 935.65 373.89 942.14 369.93 945.67 363.64 C 947.20 360.83 948.54 357.55 947.82 354.30 C 946.88 351.65 943.83 352.32 941.72 352.68 M 73.82 353.30 C 74.26 359.09 78.18 363.94 82.39 367.64 C 85.63 370.57 90.10 372.57 94.52 371.44 C 97.66 370.20 98.67 366.72 99.56 363.80 C 94.81 362.08 90.65 359.23 86.51 356.41 C 82.78 353.87 78.26 353.08 73.82 353.30 M 593.54 361.49 C 591.82 362.32 590.64 364.04 590.64 365.98 C 589.07 418.06 597.88 469.98 594.43 522.06 C 592.76 547.12 587.97 572.33 577.09 595.13 C 576.16 597.31 574.52 599.78 575.80 602.18 C 577.44 605.87 583.45 605.73 584.97 602.00 C 597.47 576.91 602.83 548.89 604.54 521.09 C 607.69 469.35 599.25 417.80 600.59 366.06 C 600.87 362.35 596.74 360.22 593.54 361.49 M 886.12 387.13 C 882.91 390.17 882.88 394.86 882.97 398.96 C 887.54 398.57 892.12 397.89 896.47 396.38 C 899.95 395.28 903.13 392.57 903.66 388.80 C 903.79 387.14 904.63 384.82 903.08 383.62 C 897.33 383.32 890.64 382.85 886.12 387.13 M 656.47 387.31 C 655.22 388.13 654.39 389.51 654.29 391.01 C 648.98 436.13 652.83 482.64 639.43 526.57 C 639.01 528.11 638.58 529.92 639.64 531.32 C 641.55 535.12 648.14 534.29 648.89 530.00 C 662.72 485.31 659.01 437.95 664.22 391.99 C 664.95 387.90 659.70 384.76 656.47 387.31 M 185.41 558.89 C 170.38 562.53 155.76 568.46 142.82 576.94 C 138.39 577.95 133.69 579.01 130.35 582.34 C 124.68 587.46 124.08 595.75 124.60 602.90 C 127.88 605.26 131.85 606.87 135.97 606.18 C 143.73 604.98 149.55 599.19 154.98 593.99 C 170.69 584.33 188.65 578.32 207.01 576.52 C 221.89 575.53 236.95 576.15 251.49 579.71 C 290.67 588.98 325.71 610.97 355.62 637.40 C 357.80 639.35 360.78 639.78 363.54 640.38 C 371.15 650.82 372.78 664.05 378.61 675.37 C 381.83 681.90 387.50 687.45 394.74 689.14 C 400.09 678.37 400.27 665.75 397.79 654.20 C 395.29 643.48 390.08 632.58 380.60 626.40 C 377.61 624.27 373.95 623.67 370.58 622.44 C 360.01 613.25 349.14 604.38 337.56 596.49 C 306.53 575.11 270.89 559.04 233.05 555.56 C 217.12 554.61 200.96 554.93 185.41 558.89 M 89.93 595.99 C 90.72 600.60 93.24 604.66 96.16 608.23 C 101.37 607.46 108.05 606.48 111.66 611.32 C 117.05 618.68 117.17 628.59 122.12 636.12 C 127.58 637.58 133.31 637.61 138.91 637.25 C 142.78 636.33 143.02 630.16 139.27 628.78 C 135.62 627.98 131.82 628.65 128.12 628.19 C 124.96 619.92 123.58 610.41 117.14 603.87 C 112.82 599.34 106.26 598.21 100.27 598.62 C 96.17 590.69 99.46 580.55 106.78 575.78 C 111.10 573.30 107.98 565.86 103.07 567.57 C 93.19 572.86 87.70 585.05 89.93 595.99 M 216.55 602.25 C 215.87 609.08 216.44 615.99 216.24 622.85 C 228.85 622.89 241.45 622.85 254.06 622.86 C 255.40 623.05 257.16 622.67 258.15 623.81 C 266.06 632.25 274.24 640.45 282.78 648.26 C 286.64 652.01 293.88 651.39 296.79 646.78 C 299.29 643.09 298.59 637.72 295.21 634.81 C 288.15 628.21 281.26 621.43 274.55 614.48 C 271.49 611.68 271.25 606.71 267.27 604.75 C 258.96 600.36 249.09 601.66 240.06 602.21 C 232.21 602.41 224.33 603.91 216.55 602.25 M 418.37 679.32 C 415.68 680.11 415.33 683.19 414.40 685.41 C 409.52 698.56 399.09 710.35 385.34 714.36 C 378.06 716.59 370.25 715.41 363.32 712.55 C 360.35 710.98 356.38 713.66 356.71 717.01 C 356.56 720.62 360.53 721.79 363.27 722.72 C 375.67 727.13 389.87 724.92 400.77 717.71 C 412.34 710.07 420.89 698.06 424.67 684.75 C 425.61 681.23 421.69 677.98 418.37 679.32 Z" />
<path fill="#000000" opacity="1.00" d=" M 514.49 40.31 C 515.87 39.03 517.98 39.88 519.53 40.42 C 537.39 47.60 556.98 48.48 576.00 48.21 C 596.29 48.43 616.74 46.68 636.89 49.84 C 640.26 49.91 641.13 54.90 638.40 56.49 C 637.21 57.41 635.59 56.77 634.24 56.77 C 614.93 54.05 595.40 55.64 575.99 55.47 C 555.78 55.75 534.95 54.69 516.03 46.91 C 513.13 46.23 511.89 42.10 514.49 40.31 Z" />
<path fill="#000000" opacity="1.00" d=" M 333.43 49.51 C 335.25 48.96 337.41 48.61 338.94 50.06 C 341.70 52.30 340.25 57.27 336.73 57.74 C 312.85 63.80 290.39 74.37 266.49 80.38 C 264.39 81.13 261.70 80.33 260.78 78.21 C 259.39 75.79 261.09 72.35 263.86 71.98 C 287.53 66.01 309.79 55.60 333.43 49.51 Z" />
<path fill="#000000" opacity="1.00" d=" M 472.41 56.50 C 474.42 56.07 476.22 57.24 477.96 58.03 C 484.97 61.46 492.80 62.65 500.49 63.34 C 511.00 64.07 521.54 64.00 532.08 63.95 C 534.19 64.01 536.89 63.77 538.26 65.78 C 540.51 68.43 538.59 73.25 534.99 73.16 C 529.00 73.26 523.00 73.14 517.00 73.20 C 503.13 72.92 488.78 72.83 475.79 67.31 C 473.39 66.15 470.21 65.43 469.13 62.70 C 467.95 60.18 469.67 56.93 472.41 56.50 Z" />
<path fill="#000000" opacity="1.00" d=" M 385.85 65.85 C 387.76 62.83 393.05 63.77 393.92 67.22 C 394.66 71.16 391.30 74.24 388.90 76.89 C 380.12 85.28 367.29 85.70 355.94 87.23 C 350.07 88.28 343.38 88.78 338.81 93.03 C 340.63 93.54 342.59 93.70 344.28 94.61 C 347.58 96.70 347.24 102.30 343.75 104.04 C 340.64 105.79 337.11 103.16 333.92 104.06 C 332.42 105.44 335.02 106.42 335.80 107.27 C 338.17 109.04 341.05 110.11 344.03 110.11 C 345.89 110.38 348.35 109.73 349.58 111.58 C 351.57 113.80 350.40 117.77 347.58 118.60 C 340.22 120.00 332.49 116.97 327.42 111.59 C 325.00 108.61 320.82 107.50 317.16 108.44 C 286.57 113.07 255.12 111.94 225.07 120.01 C 219.43 131.97 215.66 146.79 202.89 153.25 C 198.69 153.02 194.38 152.37 190.63 150.36 C 188.85 149.26 186.61 148.02 186.54 145.64 C 185.81 140.15 184.94 133.53 189.13 129.15 C 191.72 125.21 198.91 127.06 198.78 131.98 C 198.25 135.16 195.83 137.83 196.30 141.27 C 197.58 141.73 198.86 142.18 200.15 142.62 C 210.00 134.71 211.23 121.11 218.14 111.16 C 220.31 110.04 222.78 109.68 225.12 109.03 C 254.89 101.77 285.77 102.37 315.97 98.06 C 321.11 98.03 323.08 92.40 327.10 90.12 C 330.65 88.10 333.17 84.65 336.94 82.93 C 349.22 76.32 363.93 78.93 376.66 73.82 C 380.63 72.40 383.53 69.24 385.85 65.85 Z" />
<path fill="#000000" opacity="1.00" d=" M 534.47 90.79 C 574.30 87.58 614.49 91.43 653.51 99.66 C 659.52 105.23 664.75 111.65 670.89 117.12 C 683.22 128.97 698.15 138.95 715.23 142.05 C 717.62 142.65 720.88 142.49 722.14 145.08 C 724.18 148.42 720.92 153.18 717.05 152.31 C 701.72 150.15 687.31 143.31 675.19 133.80 C 665.35 126.43 657.21 117.16 648.46 108.63 C 603.02 99.39 555.75 95.76 509.85 103.90 C 507.88 104.43 505.45 104.26 504.07 105.99 C 496.01 114.90 488.79 125.15 486.14 137.07 C 485.78 139.63 484.03 142.53 481.04 141.93 C 477.92 142.49 475.61 139.08 476.32 136.25 C 479.34 120.64 488.97 107.17 499.99 96.10 C 511.25 93.19 522.90 91.93 534.47 90.79 Z" />
<path fill="#000000" opacity="1.00" d=" M 333.39 137.28 C 335.69 135.94 338.67 136.73 340.41 138.61 C 346.78 145.78 350.76 155.41 349.81 165.10 C 349.53 167.84 349.37 171.32 346.60 172.77 C 343.62 174.79 339.24 173.08 338.16 169.74 C 337.74 167.15 338.42 164.55 338.38 161.96 C 338.43 155.77 335.07 150.36 331.36 145.68 C 329.22 143.07 330.20 138.55 333.39 137.28 Z" />
<path fill="#000000" opacity="1.00" d=" M 527.94 165.85 C 547.29 153.89 570.60 150.54 592.99 150.59 C 623.66 151.30 654.58 157.94 681.91 172.14 C 689.89 176.09 696.71 181.85 703.59 187.41 C 714.20 196.62 720.97 211.60 716.61 225.58 C 708.16 232.04 696.52 233.17 686.44 230.42 C 674.83 227.33 664.97 220.19 654.43 214.72 C 654.31 216.61 654.90 218.83 653.37 220.33 C 651.40 221.29 649.17 221.39 647.03 221.45 C 636.69 221.13 626.32 222.08 615.99 221.11 C 605.60 221.82 594.70 222.62 584.90 218.35 C 568.79 221.50 554.60 230.36 539.56 236.52 C 526.24 242.33 511.60 246.32 496.98 244.26 C 492.34 243.55 487.92 241.85 483.24 241.41 C 477.08 240.61 471.91 236.33 468.89 231.06 C 465.29 224.76 463.37 217.71 460.59 211.05 C 473.39 201.80 482.98 187.76 498.41 182.47 C 501.97 180.82 506.57 181.49 509.34 178.36 C 514.68 172.97 521.85 170.20 527.94 165.85 M 541.99 186.45 C 537.72 186.83 533.46 186.30 529.20 186.23 C 525.89 187.54 522.55 189.63 520.99 192.96 C 516.37 202.30 503.86 202.87 498.27 211.31 C 495.70 215.27 495.52 220.19 496.19 224.73 C 503.63 226.54 511.52 225.95 518.81 223.78 C 539.25 217.84 557.11 205.14 577.95 200.34 C 578.36 196.05 575.73 192.44 574.31 188.61 C 573.07 185.63 575.59 183.03 577.10 180.73 C 565.26 181.83 553.89 185.83 541.99 186.45 M 667.67 195.69 C 665.30 196.21 664.35 198.74 664.40 200.93 C 672.78 205.48 680.75 210.97 689.88 213.97 C 693.51 215.23 697.41 214.78 701.18 214.76 C 699.85 207.43 694.79 201.38 688.87 197.15 C 687.78 196.32 686.28 196.70 685.03 196.50 C 679.24 196.35 673.44 194.53 667.67 195.69 M 618.10 205.36 C 626.80 206.21 635.55 205.60 644.27 205.47 C 642.81 200.36 636.37 200.31 632.05 199.76 C 627.16 199.99 620.35 200.07 618.10 205.36 Z" />
<path fill="#ffffff" opacity="1.00" d=" M 541.99 186.45 C 553.89 185.83 565.26 181.83 577.10 180.73 C 575.59 183.03 573.07 185.63 574.31 188.61 C 575.73 192.44 578.36 196.05 577.95 200.34 C 557.11 205.14 539.25 217.84 518.81 223.78 C 511.52 225.95 503.63 226.54 496.19 224.73 C 495.52 220.19 495.70 215.27 498.27 211.31 C 503.86 202.87 516.37 202.30 520.99 192.96 C 522.55 189.63 525.89 187.54 529.20 186.23 C 533.46 186.30 537.72 186.83 541.99 186.45 Z" />
<path fill="#000000" opacity="1.00" d=" M 200.61 187.60 C 205.82 183.77 212.29 180.98 218.88 181.89 C 222.81 182.35 225.90 185.47 229.96 185.34 C 243.28 186.08 256.64 184.63 269.95 185.84 C 276.60 184.94 283.29 183.98 290.03 183.83 C 300.52 184.15 311.14 185.76 320.73 190.21 C 333.54 195.88 343.76 205.76 353.49 215.56 C 364.76 216.96 375.67 211.39 386.97 212.69 C 392.29 213.41 396.60 217.01 399.86 221.06 C 396.29 228.01 390.95 234.32 383.82 237.77 C 377.73 240.85 370.81 241.79 364.05 241.75 C 363.89 258.61 364.13 275.48 363.92 292.34 C 359.12 292.57 356.74 296.85 354.31 300.32 C 351.82 303.90 347.03 303.60 343.23 303.04 C 338.72 307.77 332.83 310.73 327.76 314.73 C 324.08 319.74 320.26 324.69 316.90 329.92 C 314.91 332.79 314.41 336.65 311.51 338.85 C 319.86 348.06 327.31 358.09 336.48 366.54 C 344.05 373.63 354.09 379.43 364.83 378.27 C 369.03 377.64 374.10 376.11 377.58 379.48 C 382.80 383.56 381.29 392.87 374.96 394.96 C 363.83 397.93 351.65 396.81 341.24 391.87 C 323.32 383.36 311.61 366.66 298.90 352.13 C 296.90 353.71 294.32 354.03 291.94 354.68 C 276.20 358.36 264.53 372.16 248.04 373.54 C 245.90 373.10 244.74 375.14 243.45 376.44 C 206.36 419.45 169.11 462.37 134.22 507.21 C 132.27 510.28 128.76 512.34 125.05 511.84 C 120.03 511.86 115.89 506.92 116.47 501.99 C 116.49 498.17 119.57 495.51 121.64 492.65 C 157.39 446.98 195.50 403.24 233.32 359.30 C 232.72 358.81 231.52 357.83 230.92 357.34 C 210.74 360.49 192.37 370.87 177.00 384.01 C 160.38 398.05 146.52 414.95 132.67 431.64 C 131.11 433.35 129.88 436.19 127.11 435.79 C 123.94 436.19 122.27 431.71 124.48 429.64 C 137.60 413.81 150.62 397.75 165.79 383.78 C 181.74 368.92 200.70 356.51 222.14 351.44 C 226.35 350.62 230.69 348.74 234.93 350.43 C 261.11 340.84 278.78 317.30 304.00 305.95 C 307.98 303.92 312.68 303.19 316.02 300.02 C 321.80 295.12 329.24 292.03 333.75 285.75 C 340.13 273.81 339.27 259.66 338.42 246.58 C 334.60 243.46 330.27 241.00 325.58 239.49 C 305.34 232.79 283.27 235.10 263.15 227.91 C 259.04 226.62 255.66 223.91 251.92 221.92 C 248.63 221.61 245.31 221.61 242.03 221.89 C 239.07 223.15 236.51 225.24 233.37 226.12 C 223.67 229.15 213.26 226.70 204.12 222.94 C 197.38 219.96 190.69 216.35 185.59 210.91 C 186.97 201.42 193.12 193.28 200.61 187.60 M 221.14 200.36 C 222.31 204.70 227.10 205.68 231.02 205.52 C 234.56 205.23 237.92 207.04 241.45 206.25 C 247.94 204.91 254.48 207.54 260.95 205.85 C 263.75 205.95 265.65 203.83 267.04 201.67 C 260.73 200.78 254.33 200.52 247.99 201.09 C 239.03 201.82 230.06 201.09 221.14 200.36 Z" />
<path fill="#ffffff" opacity="1.00" d=" M 667.67 195.69 C 673.44 194.53 679.24 196.35 685.03 196.50 C 686.28 196.70 687.78 196.32 688.87 197.15 C 694.79 201.38 699.85 207.43 701.18 214.76 C 697.41 214.78 693.51 215.23 689.88 213.97 C 680.75 210.97 672.78 205.48 664.40 200.93 C 664.35 198.74 665.30 196.21 667.67 195.69 Z" />
<path fill="#ffffff" opacity="1.00" d=" M 221.14 200.36 C 230.06 201.09 239.03 201.82 247.99 201.09 C 254.33 200.52 260.73 200.78 267.04 201.67 C 265.65 203.83 263.75 205.95 260.95 205.85 C 254.48 207.54 247.94 204.91 241.45 206.25 C 237.92 207.04 234.56 205.23 231.02 205.52 C 227.10 205.68 222.31 204.70 221.14 200.36 Z" />
<path fill="#ffffff" opacity="1.00" d=" M 618.10 205.36 C 620.35 200.07 627.16 199.99 632.05 199.76 C 636.37 200.31 642.81 200.36 644.27 205.47 C 635.55 205.60 626.80 206.21 618.10 205.36 Z" />
<path fill="#000000" opacity="1.00" d=" M 743.44 200.42 C 746.97 198.97 749.94 201.47 752.56 203.47 C 757.04 206.73 761.98 200.56 766.58 203.21 C 770.14 204.91 770.67 210.30 767.78 212.85 C 759.78 218.53 747.64 217.44 741.24 209.80 C 738.57 207.02 739.69 201.61 743.44 200.42 Z" />
<path fill="#000000" opacity="1.00" d=" M 134.80 210.85 C 138.26 210.81 141.73 210.81 145.20 210.85 C 145.27 214.33 145.27 217.81 145.21 221.29 C 141.74 221.33 138.26 221.33 134.79 221.29 C 134.73 217.81 134.73 214.33 134.80 210.85 Z" />
<path fill="#000000" opacity="1.00" d=" M 735.56 220.84 C 739.00 220.80 742.46 220.81 745.91 220.83 C 746.03 224.38 746.00 227.94 745.98 231.50 C 742.49 231.52 739.00 231.53 735.52 231.49 C 735.48 227.94 735.46 224.38 735.56 220.84 Z" />
<path fill="#000000" opacity="1.00" d=" M 71.53 222.41 C 75.14 219.70 80.30 224.87 77.70 228.55 C 74.54 232.40 70.78 235.72 67.27 239.25 C 65.35 241.62 60.75 241.51 59.59 238.43 C 58.56 236.23 59.50 233.76 61.27 232.28 C 64.70 229.00 67.80 225.34 71.53 222.41 Z" />
<path fill="#000000" opacity="1.00" d=" M 66.54 253.44 C 69.10 251.38 73.26 253.88 72.76 257.10 C 72.23 272.15 65.90 286.21 64.33 301.10 C 63.68 307.78 64.80 315.27 69.98 320.02 C 73.94 323.98 79.50 325.31 84.40 327.62 C 86.99 330.19 84.60 335.16 80.97 334.53 C 72.61 332.35 64.32 327.76 59.85 320.11 C 55.59 312.78 55.71 303.90 56.95 295.77 C 58.83 282.71 64.08 270.28 64.77 257.03 C 64.86 255.70 65.12 253.99 66.54 253.44 Z" />
<path fill="#000000" opacity="1.00" d=" M 166.44 260.36 C 170.03 259.62 173.64 261.37 176.35 263.61 C 180.33 267.21 181.36 272.70 183.53 277.38 C 184.09 278.88 185.90 279.06 187.18 279.64 C 207.68 286.43 230.11 287.81 249.13 298.75 C 252.03 300.24 251.88 304.70 249.28 306.43 C 247.53 306.94 245.54 306.95 243.96 305.95 C 223.62 294.78 199.53 294.60 178.40 285.58 C 174.59 281.76 174.20 275.98 171.45 271.53 C 170.17 269.23 167.27 269.09 165.28 267.71 C 162.69 266.01 163.21 260.97 166.44 260.36 Z" />
<path fill="#000000" opacity="1.00" d=" M 542.39 281.15 C 545.88 279.40 549.70 282.06 553.28 282.49 C 581.76 289.14 611.27 293.80 640.52 290.21 C 649.43 289.00 658.24 286.95 666.67 283.78 C 668.72 283.06 671.92 282.62 673.03 285.03 C 674.75 287.29 673.19 290.72 670.58 291.44 C 655.47 297.27 639.17 299.84 623.00 299.74 C 596.26 300.39 569.73 295.53 543.92 288.93 C 540.23 288.53 539.13 282.90 542.39 281.15 Z" />
<path fill="#000000" opacity="1.00" d=" M 475.75 302.48 C 492.15 302.39 508.55 302.48 524.94 302.43 C 526.20 302.34 527.55 302.56 528.25 303.76 C 538.55 316.12 544.27 331.60 547.92 347.11 C 553.24 370.65 554.23 394.98 552.93 419.02 C 551.20 448.05 546.57 477.15 536.80 504.63 C 528.53 550.76 519.37 597.93 496.45 639.42 C 495.71 644.18 497.92 649.11 497.02 653.96 C 496.88 655.90 495.64 658.04 493.56 658.34 C 487.79 659.16 481.17 660.55 476.03 656.94 C 470.93 653.09 471.38 645.70 473.17 640.24 C 474.75 634.41 479.15 630.04 481.57 624.61 C 500.92 587.36 508.84 545.67 516.49 504.79 C 518.33 477.55 526.60 451.20 528.24 423.95 C 529.01 410.53 528.34 394.94 518.00 385.00 C 510.27 387.16 502.02 388.99 494.10 386.74 C 486.38 384.65 480.62 377.84 478.64 370.24 C 477.18 365.97 477.19 361.08 474.78 357.20 C 466.65 352.73 456.43 353.95 448.10 357.33 C 444.62 358.35 444.36 363.01 440.91 364.10 C 435.71 365.74 430.50 363.09 425.72 361.24 C 422.15 359.62 418.34 358.67 414.47 358.09 C 414.38 353.90 414.44 348.83 418.15 346.08 C 423.49 342.18 430.40 342.97 436.58 342.45 C 443.91 338.99 451.79 336.32 459.98 336.28 C 469.36 335.72 479.12 337.66 486.97 343.01 C 491.96 347.66 493.85 354.52 495.17 360.98 C 495.94 363.90 496.26 367.53 499.12 369.24 C 503.62 370.29 508.18 368.82 512.38 367.26 C 515.99 363.46 516.29 357.76 516.71 352.79 C 516.72 346.59 516.98 340.37 516.47 334.19 C 516.60 332.84 515.24 332.23 514.30 331.66 C 503.61 326.21 490.33 328.65 480.22 321.79 C 474.16 317.43 474.40 309.04 475.75 302.48 Z" />
<path fill="#000000" opacity="1.00" d=" M 941.72 352.68 C 943.83 352.32 946.88 351.65 947.82 354.30 C 948.54 357.55 947.20 360.83 945.67 363.64 C 942.14 369.93 935.65 373.89 932.40 380.36 C 931.50 383.01 927.33 383.44 926.02 380.96 C 924.38 379.08 925.87 376.69 926.81 374.88 C 929.53 369.78 934.31 366.30 937.81 361.80 C 939.90 359.15 940.52 355.76 941.72 352.68 Z" />
<path fill="#000000" opacity="1.00" d=" M 73.82 353.30 C 78.26 353.08 82.78 353.87 86.51 356.41 C 90.65 359.23 94.81 362.08 99.56 363.80 C 98.67 366.72 97.66 370.20 94.52 371.44 C 90.10 372.57 85.63 370.57 82.39 367.64 C 78.18 363.94 74.26 359.09 73.82 353.30 Z" />
<path fill="#000000" opacity="1.00" d=" M 593.54 361.49 C 596.74 360.22 600.87 362.35 600.59 366.06 C 599.25 417.80 607.69 469.35 604.54 521.09 C 602.83 548.89 597.47 576.91 584.97 602.00 C 583.45 605.73 577.44 605.87 575.80 602.18 C 574.52 599.78 576.16 597.31 577.09 595.13 C 587.97 572.33 592.76 547.12 594.43 522.06 C 597.88 469.98 589.07 418.06 590.64 365.98 C 590.64 364.04 591.82 362.32 593.54 361.49 Z" />
<path fill="#000000" opacity="1.00" d=" M 886.12 387.13 C 890.64 382.85 897.33 383.32 903.08 383.62 C 904.63 384.82 903.79 387.14 903.66 388.80 C 903.13 392.57 899.95 395.28 896.47 396.38 C 892.12 397.89 887.54 398.57 882.97 398.96 C 882.88 394.86 882.91 390.17 886.12 387.13 Z" />
<path fill="#000000" opacity="1.00" d=" M 656.47 387.31 C 659.70 384.76 664.95 387.90 664.22 391.99 C 659.01 437.95 662.72 485.31 648.89 530.00 C 648.14 534.29 641.55 535.12 639.64 531.32 C 638.58 529.92 639.01 528.11 639.43 526.57 C 652.83 482.64 648.98 436.13 654.29 391.01 C 654.39 389.51 655.22 388.13 656.47 387.31 Z" />
<path fill="#000000" opacity="1.00" d=" M 185.41 558.89 C 200.96 554.93 217.12 554.61 233.05 555.56 C 270.89 559.04 306.53 575.11 337.56 596.49 C 349.14 604.38 360.01 613.25 370.58 622.44 C 373.95 623.67 377.61 624.27 380.60 626.40 C 390.08 632.58 395.29 643.48 397.79 654.20 C 400.27 665.75 400.09 678.37 394.74 689.14 C 387.50 687.45 381.83 681.90 378.61 675.37 C 372.78 664.05 371.15 650.82 363.54 640.38 C 360.78 639.78 357.80 639.35 355.62 637.40 C 325.71 610.97 290.67 588.98 251.49 579.71 C 236.95 576.15 221.89 575.53 207.01 576.52 C 188.65 578.32 170.69 584.33 154.98 593.99 C 149.55 599.19 143.73 604.98 135.97 606.18 C 131.85 606.87 127.88 605.26 124.60 602.90 C 124.08 595.75 124.68 587.46 130.35 582.34 C 133.69 579.01 138.39 577.95 142.82 576.94 C 155.76 568.46 170.38 562.53 185.41 558.89 Z" />
<path fill="#000000" opacity="1.00" d=" M 89.93 595.99 C 87.70 585.05 93.19 572.86 103.07 567.57 C 107.98 565.86 111.10 573.30 106.78 575.78 C 99.46 580.55 96.17 590.69 100.27 598.62 C 106.26 598.21 112.82 599.34 117.14 603.87 C 123.58 610.41 124.96 619.92 128.12 628.19 C 131.82 628.65 135.62 627.98 139.27 628.78 C 143.02 630.16 142.78 636.33 138.91 637.25 C 133.31 637.61 127.58 637.58 122.12 636.12 C 117.17 628.59 117.05 618.68 111.66 611.32 C 108.05 606.48 101.37 607.46 96.16 608.23 C 93.24 604.66 90.72 600.60 89.93 595.99 Z" />
<path fill="#000000" opacity="1.00" d=" M 216.55 602.25 C 224.33 603.91 232.21 602.41 240.06 602.21 C 249.09 601.66 258.96 600.36 267.27 604.75 C 271.25 606.71 271.49 611.68 274.55 614.48 C 281.26 621.43 288.15 628.21 295.21 634.81 C 298.59 637.72 299.29 643.09 296.79 646.78 C 293.88 651.39 286.64 652.01 282.78 648.26 C 274.24 640.45 266.06 632.25 258.15 623.81 C 257.16 622.67 255.40 623.05 254.06 622.86 C 241.45 622.85 228.85 622.89 216.24 622.85 C 216.44 615.99 215.87 609.08 216.55 602.25 Z" />
<path fill="#000000" opacity="1.00" d=" M 418.37 679.32 C 421.69 677.98 425.61 681.23 424.67 684.75 C 420.89 698.06 412.34 710.07 400.77 717.71 C 389.87 724.92 375.67 727.13 363.27 722.72 C 360.53 721.79 356.56 720.62 356.71 717.01 C 356.38 713.66 360.35 710.98 363.32 712.55 C 370.25 715.41 378.06 716.59 385.34 714.36 C 399.09 710.35 409.52 698.56 414.40 685.41 C 415.33 683.19 415.68 680.11 418.37 679.32 Z" />
</svg>
